<svg width="151" height="36" viewBox="0 0 151 36" fill="none" xmlns="http://www.w3.org/2000/svg">
<g clip-path="url(#clip0_709_92)">
<path d="M0 34.5914V3.10303H8.27674C11.6624 3.10303 14.2196 3.79508 15.9484 5.17918C17.6916 6.54887 18.5632 8.54573 18.5632 11.1698C18.5632 13.0729 18.0806 14.6516 17.1153 15.906C16.1501 17.1603 14.7886 17.9605 13.031 18.3066C15.0192 18.5661 16.6759 19.4311 18.0014 20.9017C19.3268 22.3579 19.9895 24.0304 19.9895 25.9191C19.9895 28.6008 19.1179 30.7202 17.3747 32.2773C15.6458 33.82 13.2327 34.5914 10.1352 34.5914H0ZM1.16696 19.0418V33.4236H10.2649C12.9302 33.4236 15.0191 32.7675 16.5319 31.4555C18.059 30.1291 18.8226 28.298 18.8226 25.9624C18.8226 23.9727 18.0878 22.3363 16.6183 21.0531C15.1488 19.7555 13.1823 19.0851 10.7187 19.0418H1.16696ZM1.16696 17.874H8.70895C11.5759 17.874 13.7369 17.3261 15.192 16.2304C16.6471 15.1202 17.3747 13.4045 17.3747 11.0833C17.3747 6.61375 14.4285 4.34295 8.53606 4.27087H1.16696V17.874Z" fill="black"/>
<path d="M27.249 16.6414C28.0125 14.8248 29.1363 13.3902 30.6202 12.3377C32.1041 11.2853 33.7465 10.759 35.5473 10.759C38.0541 10.759 39.9126 11.4727 41.1228 12.9C42.3474 14.313 42.9669 16.454 42.9813 19.3232V34.5915H41.8143V19.2799C41.7999 16.7712 41.2885 14.9185 40.28 13.7219C39.2715 12.5108 37.6723 11.9052 35.4825 11.9052C33.4655 11.9052 31.7151 12.6261 30.2312 14.0679C28.7617 15.4952 27.7676 17.3407 27.249 19.6043V34.5915H26.082V1.37305H27.249V16.6414Z" fill="black"/>
<path d="M65.4125 34.5913C65.1244 33.5965 64.9803 32.1691 64.9803 30.3093C64.0583 31.8087 62.7977 32.9693 61.1985 33.7911C59.5994 34.613 57.7913 35.0239 55.7743 35.0239C53.6133 35.0239 51.8701 34.4399 50.5447 33.2721C49.2336 32.0898 48.5781 30.5544 48.5781 28.6656C48.5781 26.5174 49.5434 24.8017 51.4739 23.5185C53.4188 22.2209 55.9977 21.5577 59.2104 21.5288H64.9803V18.1118C64.9803 16.151 64.3608 14.63 63.1218 13.5486C61.8973 12.4673 60.1396 11.9266 57.8489 11.9266C55.7167 11.9266 53.9375 12.4745 52.5112 13.5702C51.0849 14.666 50.3718 16.0213 50.3718 17.6361L49.2048 17.5928C49.2048 15.6897 50.0404 14.0749 51.7116 12.7484C53.3828 11.422 55.4286 10.7588 57.8489 10.7588C60.3701 10.7588 62.3727 11.3932 63.8566 12.6619C65.3405 13.9163 66.1041 15.6897 66.1473 17.9821V29.163C66.1473 31.7294 66.349 33.474 66.7524 34.3967V34.5913H65.4125ZM55.7743 33.8777C57.9642 33.8777 59.8443 33.3874 61.4146 32.407C62.9994 31.4266 64.1879 30.0497 64.9803 28.2764V22.7183H59.5778C56.2354 22.7183 53.6782 23.3815 51.9061 24.708C50.4654 25.7893 49.7451 27.1374 49.7451 28.7521C49.7451 30.1795 50.3141 31.3906 51.4523 32.3854C52.5904 33.3802 54.0311 33.8777 55.7743 33.8777Z" fill="black"/>
<path d="M83.9761 12.0348L82.4633 11.905C80.4752 11.905 78.8112 12.5538 77.4714 13.8514C76.1315 15.1346 75.2527 16.9368 74.8349 19.258V34.5913H73.668V11.1913H74.8349V16.0573C75.4688 14.4281 76.4197 13.1377 77.6875 12.1861C78.9553 11.2346 80.5472 10.7588 82.4633 10.7588C83.1405 10.7588 83.6879 10.8381 84.1057 10.9967L83.9761 12.0348Z" fill="black"/>
<path d="M102.713 34.5913C102.425 33.5965 102.281 32.1691 102.281 30.3093C101.359 31.8087 100.098 32.9693 98.4993 33.7911C96.9002 34.613 95.0921 35.0239 93.0751 35.0239C90.9141 35.0239 89.1709 34.4399 87.8454 33.2721C86.5344 32.0898 85.8789 30.5544 85.8789 28.6656C85.8789 26.5174 86.8442 24.8017 88.7747 23.5185C90.7196 22.2209 93.2984 21.5577 96.5112 21.5288H102.281V18.1118C102.281 16.151 101.662 14.63 100.423 13.5486C99.1981 12.4673 97.4404 11.9266 95.1497 11.9266C93.0175 11.9266 91.2383 12.4745 89.812 13.5702C88.3857 14.666 87.6726 16.0213 87.6726 17.6361L86.5056 17.5928C86.5056 15.6897 87.3412 14.0749 89.0124 12.7484C90.6836 11.422 92.7294 10.7588 95.1497 10.7588C97.6709 10.7588 99.6735 11.3932 101.157 12.6619C102.641 13.9163 103.405 15.6897 103.448 17.9821V29.163C103.448 31.7294 103.65 33.474 104.053 34.3967V34.5913H102.713ZM93.0751 33.8777C95.265 33.8777 97.1451 33.3874 98.7154 32.407C100.3 31.4266 101.489 30.0497 102.281 28.2764V22.7183H96.8785C93.5362 22.7183 90.9789 23.3815 89.2069 24.708C87.7662 25.7893 87.0459 27.1374 87.0459 28.7521C87.0459 30.1795 87.6149 31.3906 88.7531 32.3854C89.8912 33.3802 91.3319 33.8777 93.0751 33.8777Z" fill="black"/>
<path d="M113.585 4.87646V11.1914H118.901V12.3809H113.585V28.9902C113.585 30.6482 113.851 31.8737 114.384 32.6667C114.932 33.4597 115.84 33.8561 117.107 33.8561C117.741 33.8561 118.512 33.7913 119.42 33.6615L119.614 34.7645C119.139 34.9375 118.325 35.024 117.172 35.024C115.472 35.024 114.255 34.5554 113.52 33.6183C112.785 32.6667 112.411 31.1744 112.396 29.1415V12.3809H108.074V11.1914H112.396V4.87646H113.585Z" fill="black"/>
<path d="M125.549 34.5915C124.87 34.5915 124.354 34.3848 124 33.9715C123.646 33.5285 123.469 33.0266 123.469 32.4655C123.469 31.875 123.646 31.3435 124 30.8711L135.153 15.9892L137.144 14.2175L147.324 0.66437C147.737 0.221457 148.283 0 148.961 0C149.581 0 150.068 0.19193 150.422 0.575788C150.776 0.959647 150.968 1.43209 150.997 1.99311C151.027 2.55413 150.864 3.10039 150.51 3.63189L139.756 17.9823L137.853 19.6654L127.142 33.9272C126.7 34.3701 126.168 34.5915 125.549 34.5915ZM148.696 34.5915C148.312 34.5915 147.973 34.5325 147.678 34.4144C147.412 34.2667 147.161 34.0453 146.925 33.75L136.613 19.4439L134.976 18.0709L124.575 3.63189C124.221 3.15945 124.074 2.64272 124.133 2.08169C124.192 1.52067 124.398 1.03346 124.752 0.620078C125.136 0.206692 125.637 0 126.257 0C127.024 0 127.57 0.221457 127.895 0.66437L137.72 14.3061L139.402 15.6791L150.333 30.8711C150.687 31.3435 150.85 31.875 150.82 32.4655C150.791 33.0561 150.584 33.5581 150.2 33.9715C149.846 34.3848 149.345 34.5915 148.696 34.5915Z" fill="black"/>
</g>
<defs>
<clipPath id="clip0_709_92">
<rect width="151" height="35.0241" fill="white"/>
</clipPath>
</defs>
</svg>
